<svg xmlns="http://www.w3.org/2000/svg" xmlns:xlink="http://www.w3.org/1999/xlink" viewBox="0 0 254.6 239.9"><defs><style>.cls-1{fill:none;}.cls-2{clip-path:url(#clip-path);}.cls-3{fill:#fcd421;}.cls-4{fill:#fbb03b;}.cls-5{fill:url(#linear-gradient);}</style><clipPath id="clip-path" transform="translate(-47.7 -60.51)"><rect class="cls-1" width="350" height="350"/></clipPath><linearGradient id="linear-gradient" x1="218.51" y1="230.43" x2="322.78" y2="230.43" gradientUnits="userSpaceOnUse"><stop offset="0" stop-color="#f7931e"/><stop offset="0.77" stop-color="#fbb03b"/></linearGradient></defs><title>GASP</title><g id="Layer_2" data-name="Layer 2"><g id="Layer_1-2" data-name="Layer 1"><g class="cls-2"><path class="cls-3" d="M40,159.94h0a40,40,0,0,1,40,40v40a0,0,0,0,1,0,0H40a40,40,0,0,1-40-40v0a40,40,0,0,1,40-40Z"/><path class="cls-3" d="M127.3,80h0a40,40,0,0,1,40,40v120a0,0,0,0,1,0,0h-80a0,0,0,0,1,0,0V120A40,40,0,0,1,127.3,80Z"/><path class="cls-4" d="M214.62,0h0a40,40,0,0,1,40,40V198.74a41.16,41.16,0,0,1-41.16,41.16H174.63a0,0,0,0,1,0,0V40a40,40,0,0,1,40-40Z"/><path class="cls-5" d="M261,300.42H222.33v-140l80,47.49v51.19A41.3,41.3,0,0,1,261,300.42Z" transform="translate(-47.7 -60.51)"/></g></g></g></svg>